<svg width="24" height="24" viewBox="0 0 24 24" fill="none" xmlns="http://www.w3.org/2000/svg">
<g clip-path="url(#clip0_31179_10448)">
<path d="M15.7587 1.70643L14.1332 2.63971L15.7587 3.57299L16.6477 5.27943L17.5367 3.57299L19.1622 2.63971L17.5367 1.70643L16.6477 0L15.7587 1.70643ZM9.57541 2.67915C8.08459 2.9967 6.69329 3.70126 5.52857 4.72849C4.36385 5.75572 3.46281 7.07289 2.90772 8.55972C2.35264 10.0465 2.1612 11.6557 2.35089 13.2402C2.54057 14.8246 3.10534 16.334 3.99362 17.6304C4.8819 18.9268 6.06539 19.9689 7.43602 20.6617C8.80665 21.3544 10.3208 21.6756 11.8401 21.5961C13.3594 21.5165 14.8355 21.0386 16.1336 20.2061C17.4318 19.3736 18.5106 18.2129 19.2715 16.8301C16.5682 16.808 13.9829 15.6652 12.0788 13.6507C10.1748 11.6361 9.10635 8.91321 9.10643 6.07528C9.10643 4.9042 9.25555 3.76061 9.57541 2.67915ZM0 12.0502C0 5.45031 5.09619 0.100378 11.383 0.100378H13.3569L12.3688 1.89285C11.7097 3.08783 11.383 4.50986 11.383 6.07528C11.3829 7.31044 11.6433 8.5303 12.1455 9.64726C12.6478 10.7642 13.3794 11.7506 14.2879 12.5354C15.1964 13.3203 16.2592 13.8842 17.3999 14.1867C18.5407 14.4891 19.7311 14.5227 20.8856 14.2848L22.8002 13.894L22.1821 15.8371C20.6739 20.5788 16.4109 24 11.383 24C5.09619 24 0 18.6501 0 12.0502ZM21.0586 5.37741L22.099 7.37303L24 8.46525L22.099 9.55746L21.0586 11.5531L20.0182 9.55746L18.1172 8.46525L20.0182 7.37303L21.0586 5.37741Z" fill="#ffffff"/>
</g>
<defs>
<clipPath id="clip0_31179_10448">
<rect width="24" height="24" fill="white"/>
</clipPath>
</defs>
</svg>
